<svg xmlns="http://www.w3.org/2000/svg" width="133" height="24" viewBox="0 0 133 24" fill="none">
    <path d="M95.5246 18.6356H90.3699C90.2696 18.6356 90.1733 18.5958 90.1023 18.525C90.0313 18.4542 89.9912 18.3581 89.9909 18.2578V16.6386C89.9909 16.5888 90.0007 16.5396 90.0197 16.4936C90.0388 16.4476 90.0667 16.4058 90.1019 16.3706C90.1371 16.3354 90.1789 16.3075 90.2248 16.2885C90.2708 16.2694 90.3201 16.2596 90.3699 16.2596H96.649V14.7676H90.3699C89.874 14.7682 89.3985 14.9655 89.0479 15.3163C88.6974 15.6671 88.5003 16.1427 88.5 16.6386V18.2578C88.5003 18.7536 88.6974 19.229 89.048 19.5796C89.3986 19.9302 89.8741 20.1273 90.3699 20.1276H95.5246C95.625 20.1279 95.7212 20.168 95.7922 20.239C95.8632 20.31 95.9033 20.4062 95.9036 20.5066V22.1258C95.903 22.2259 95.8628 22.3217 95.7918 22.3923C95.7208 22.4628 95.6247 22.5025 95.5246 22.5025H89.2454V23.9945H95.5246C96.0203 23.9942 96.4957 23.7973 96.8465 23.447C97.1972 23.0966 97.3947 22.6215 97.3956 22.1258V20.5066C97.395 20.0106 97.1977 19.535 96.8469 19.1843C96.4962 18.8335 96.0206 18.6362 95.5246 18.6356Z" fill="#1D2E48"/>
    <path d="M107.689 14.7676H101.409C100.913 14.7685 100.438 14.9659 100.087 15.3167C99.7368 15.6674 99.5397 16.1428 99.5391 16.6386V22.0032C99.5397 22.4991 99.7368 22.9744 100.087 23.3252C100.438 23.6759 100.913 23.8733 101.409 23.8742H107.689C108.185 23.8733 108.66 23.6759 109.011 23.3252C109.361 22.9744 109.559 22.4991 109.559 22.0032V16.6386C109.559 16.1428 109.361 15.6674 109.011 15.3167C108.66 14.9659 108.185 14.7685 107.689 14.7676ZM108.068 22.0032C108.068 22.1036 108.028 22.1998 107.957 22.2709C107.886 22.3419 107.79 22.3819 107.689 22.3822H101.409C101.309 22.3819 101.213 22.3418 101.142 22.2708C101.071 22.1997 101.031 22.1035 101.031 22.0032V16.6386C101.031 16.5889 101.041 16.5396 101.06 16.4937C101.078 16.4477 101.106 16.4059 101.141 16.3707C101.176 16.3355 101.218 16.3076 101.264 16.2885C101.31 16.2694 101.359 16.2596 101.409 16.2596H107.689C107.79 16.2599 107.886 16.3 107.957 16.371C108.028 16.442 108.068 16.5382 108.068 16.6386V22.0032Z" fill="#1D2E48"/>
    <path d="M111.781 16.6386V23.7335H113.273V20.0505C113.274 19.9504 113.314 19.8546 113.385 19.784C113.456 19.7134 113.552 19.6738 113.652 19.6738H119.931V18.1806H113.652C113.525 18.1807 113.398 18.1936 113.273 18.2192V16.6386C113.274 16.5382 113.314 16.442 113.385 16.371C113.456 16.3 113.552 16.2599 113.652 16.2596H119.931V14.7676H113.652C113.156 14.7685 112.681 14.9659 112.33 15.3166C111.98 15.6673 111.782 16.1427 111.781 16.6386Z" fill="#1D2E48"/>
    <path d="M132.079 14.7676H122.582V16.2596H126.619V23.7336H128.111V16.2596H132.079V14.7676Z" fill="#1D2E48"/>
    <path d="M22.4138 5.2761V0H5.3941C3.98393 0.00170374 2.63034 0.554758 1.62245 1.54102C0.614561 2.52729 0.0322838 3.86858 0 5.27837H22.4104" fill="#1D2E48"/>
    <path d="M5.41251 15.2768H18.0649C18.0808 15.2766 18.0965 15.2796 18.1111 15.2856C18.1258 15.2916 18.1391 15.3005 18.1503 15.3117C18.1615 15.3229 18.1704 15.3362 18.1764 15.3508C18.1824 15.3655 18.1854 15.3812 18.1852 15.397L18.1716 18.5956C18.1724 18.6119 18.1698 18.6281 18.1641 18.6434C18.1584 18.6586 18.1497 18.6726 18.1384 18.6843C18.1272 18.6961 18.1137 18.7055 18.0987 18.7119C18.0837 18.7183 18.0676 18.7216 18.0513 18.7215H1.56946V23.9999H18.0513C19.4827 23.9984 20.855 23.4292 21.8671 22.417C22.8792 21.4049 23.4485 20.0326 23.45 18.6013L23.4647 15.4027C23.4629 13.9712 22.8934 12.5987 21.8812 11.5865C20.8689 10.5742 19.4965 10.0047 18.0649 10.0029H17.3286L0.0195312 10.0154C0.0547238 11.423 0.638123 12.7613 1.64546 13.7451C2.6528 14.7289 4.00446 15.2805 5.41251 15.2824" fill="#1D2E48"/>
    <path d="M82.7139 5.39638C82.7115 3.96532 82.1418 2.59361 81.1295 1.58201C80.1173 0.570417 78.7452 0.00149994 77.3142 0H56.5898V5.2761H77.4356V9.95652H77.3493C77.3369 9.95652 77.3278 9.97013 77.3142 9.97013V9.98488H61.8694V9.96559H56.5898V23.9705H61.8694V15.2655H77.3142C77.3462 15.2655 77.3769 15.2782 77.3996 15.3007C77.4223 15.3232 77.4353 15.3538 77.4356 15.3858V23.9331H82.7139V15.3858C82.7143 14.4102 82.4475 13.4531 81.9424 12.6184C82.4471 11.7836 82.7139 10.8266 82.7139 9.851V5.39638Z" fill="#1D2E48"/>
    <path d="M53.2799 5.2761V0H32.3695C30.9596 0.00199966 29.6062 0.555183 28.5986 1.54142C27.591 2.52765 27.0088 3.86877 26.9766 5.27837H53.2799" fill="#1D2E48"/>
    <path d="M40.0778 15.2494H47.9069V18.5648C47.9066 18.5965 47.8938 18.6268 47.8712 18.6491C47.8487 18.6715 47.8183 18.684 47.7866 18.684H32.3713C32.3396 18.684 32.3092 18.6715 32.2867 18.6491C32.2641 18.6268 32.2513 18.5965 32.251 18.5648V9.98465H26.9727V18.5592C26.9742 19.9905 27.5434 21.3628 28.5555 22.3749C29.5677 23.387 30.9399 23.9563 32.3713 23.9578H47.7855C49.2167 23.956 50.5888 23.3866 51.6009 22.3746C52.6129 21.3625 53.1823 19.9904 53.1841 18.5592V9.97217L40.0778 9.98124V15.2494Z" fill="#1D2E48"/>
</svg>